<svg width="182" height="25" viewBox="0 0 182 25" fill="none" xmlns="http://www.w3.org/2000/svg">
<path d="M0.556818 24H9.47727C14.8864 24 17.3295 21.3068 17.3295 17.7386C17.3295 14.1364 14.8068 12.1023 12.5 11.9773V11.75C14.6364 11.2045 16.4205 9.75 16.4205 6.84091C16.4205 3.39773 14.0341 0.727272 9.07955 0.727272H0.556818V24ZM4.06818 20.9886V13.5341H9.26136C12.0795 13.5341 13.8409 15.3523 13.8409 17.5682C13.8409 19.5227 12.5114 20.9886 9.13636 20.9886H4.06818ZM4.06818 10.7955V3.71591H8.86364C11.6477 3.71591 12.9773 5.18182 12.9773 7.11364C12.9773 9.36364 11.1364 10.7955 8.77273 10.7955H4.06818ZM94.6591 3.75H101.909V24H105.409V3.75H112.67V0.727272H94.6591V3.75Z" fill="#087DC0"/>
<path d="M26.3011 24.3864C29.1875 24.3864 30.8125 22.9205 31.4602 21.6136H31.5966V24H34.9148V12.4091C34.9148 7.32954 30.9148 6.31818 28.142 6.31818C24.983 6.31818 22.0739 7.59091 20.9375 10.7727L24.1307 11.5C24.6307 10.2614 25.9034 9.06818 28.1875 9.06818C30.3807 9.06818 31.5057 10.2159 31.5057 12.1932V12.2727C31.5057 13.5114 30.233 13.4886 27.0966 13.8523C23.7898 14.2386 20.4034 15.1023 20.4034 19.0682C20.4034 22.5 22.983 24.3864 26.3011 24.3864ZM27.0398 21.6591C25.1193 21.6591 23.733 20.7955 23.733 19.1136C23.733 17.2955 25.3466 16.6477 27.3125 16.3864C28.4148 16.2386 31.0284 15.9432 31.517 15.4545V17.7045C31.517 19.7727 29.8693 21.6591 27.0398 21.6591ZM39.4403 24H42.8381V13.3409C42.8381 11.0568 44.5994 9.40909 47.0085 9.40909C47.7131 9.40909 48.5085 9.53409 48.7812 9.61364V6.36364C48.4403 6.31818 47.7699 6.28409 47.3381 6.28409C45.2926 6.28409 43.5426 7.44318 42.9062 9.31818H42.7244V6.54545H39.4403V24ZM60.9006 6.54545H57.321V2.36364H53.9233V6.54545H51.3665V9.27273H53.9233V19.5795C53.9119 22.75 56.3324 24.2841 59.0142 24.2273C60.0938 24.2159 60.821 24.0114 61.2188 23.8636L60.6051 21.0568C60.3778 21.1023 59.9574 21.2045 59.4119 21.2045C58.3097 21.2045 57.321 20.8409 57.321 18.875V9.27273H60.9006V6.54545ZM71.9943 24.3523C75.8011 24.3523 78.4943 22.4773 79.267 19.6364L76.0511 19.0568C75.4375 20.7045 73.9602 21.5455 72.0284 21.5455C69.1193 21.5455 67.1648 19.6591 67.0739 16.2955H79.483V15.0909C79.483 8.78409 75.7102 6.31818 71.7557 6.31818C66.892 6.31818 63.6875 10.0227 63.6875 15.3864C63.6875 20.8068 66.8466 24.3523 71.9943 24.3523ZM67.0852 13.75C67.2216 11.2727 69.017 9.125 71.7784 9.125C74.4148 9.125 76.142 11.0795 76.1534 13.75H67.0852ZM83.2528 24H86.6506V13.3409C86.6506 11.0568 88.4119 9.40909 90.821 9.40909C91.5256 9.40909 92.321 9.53409 92.5938 9.61364V6.36364C92.2528 6.31818 91.5824 6.28409 91.1506 6.28409C89.1051 6.28409 87.3551 7.44318 86.7188 9.31818H86.5369V6.54545H83.2528V24ZM116.378 24H119.776V13.3409C119.776 11.0568 121.537 9.40909 123.946 9.40909C124.651 9.40909 125.446 9.53409 125.719 9.61364V6.36364C125.378 6.31818 124.707 6.28409 124.276 6.28409C122.23 6.28409 120.48 7.44318 119.844 9.31818H119.662V6.54545H116.378V24ZM133.582 24.3864C136.469 24.3864 138.094 22.9205 138.741 21.6136H138.878V24H142.196V12.4091C142.196 7.32954 138.196 6.31818 135.423 6.31818C132.264 6.31818 129.355 7.59091 128.219 10.7727L131.412 11.5C131.912 10.2614 133.185 9.06818 135.469 9.06818C137.662 9.06818 138.787 10.2159 138.787 12.1932V12.2727C138.787 13.5114 137.514 13.4886 134.378 13.8523C131.071 14.2386 127.685 15.1023 127.685 19.0682C127.685 22.5 130.264 24.3864 133.582 24.3864ZM134.321 21.6591C132.401 21.6591 131.014 20.7955 131.014 19.1136C131.014 17.2955 132.628 16.6477 134.594 16.3864C135.696 16.2386 138.31 15.9432 138.798 15.4545V17.7045C138.798 19.7727 137.151 21.6591 134.321 21.6591ZM153.256 24.3409C156.438 24.3409 157.688 22.3977 158.301 21.2841H158.585V24H161.903V0.727272H158.506V9.375H158.301C157.688 8.29545 156.528 6.31818 153.278 6.31818C149.062 6.31818 145.96 9.64773 145.96 15.3068C145.96 20.9545 149.017 24.3409 153.256 24.3409ZM154.006 21.4432C150.972 21.4432 149.392 18.7727 149.392 15.2727C149.392 11.8068 150.938 9.20455 154.006 9.20455C156.972 9.20455 158.562 11.625 158.562 15.2727C158.562 18.9432 156.938 21.4432 154.006 21.4432ZM174.276 24.3523C178.082 24.3523 180.776 22.4773 181.548 19.6364L178.332 19.0568C177.719 20.7045 176.241 21.5455 174.31 21.5455C171.401 21.5455 169.446 19.6591 169.355 16.2955H181.764V15.0909C181.764 8.78409 177.991 6.31818 174.037 6.31818C169.173 6.31818 165.969 10.0227 165.969 15.3864C165.969 20.8068 169.128 24.3523 174.276 24.3523ZM169.366 13.75C169.503 11.2727 171.298 9.125 174.06 9.125C176.696 9.125 178.423 11.0795 178.435 13.75H169.366Z" fill="#16161D"/>
</svg>
