<svg width="287" height="319" viewBox="0 0 287 319" fill="none" xmlns="http://www.w3.org/2000/svg">
<g clip-path="url(#clip0)">
<path d="M276.687 318.541H10.5263C7.78122 318.538 5.14943 317.446 3.20833 315.505C1.26724 313.564 0.17536 310.932 0.172272 308.187V10.3541C0.175362 7.60898 1.26724 4.97717 3.20833 3.03606C5.14943 1.09496 7.78122 0.00309032 10.5263 0H276.687C279.432 0.00309032 282.064 1.09496 284.005 3.03606C285.946 4.97717 287.038 7.60898 287.041 10.3541V308.187C287.038 310.932 285.946 313.564 284.005 315.505C282.064 317.446 279.432 318.538 276.687 318.541ZM10.5263 1.21813C8.10419 1.22087 5.78202 2.18429 4.06929 3.89702C2.35656 5.60976 1.39314 7.93194 1.3904 10.3541V308.187C1.39314 310.609 2.35656 312.932 4.06929 314.644C5.78202 316.357 8.10419 317.321 10.5263 317.323H276.687C279.109 317.321 281.431 316.357 283.144 314.644C284.857 312.932 285.82 310.609 285.823 308.187V10.3541C285.82 7.93194 284.857 5.60976 283.144 3.89702C281.431 2.18429 279.109 1.22087 276.687 1.21813H10.5263Z" fill="#3F3D56"/>
<path d="M286.392 25.3313H0.739716V26.5494H286.392V25.3313Z" fill="#3F3D56"/>
<path d="M14.7483 18.2719C17.4393 18.2719 19.6208 16.0904 19.6208 13.3994C19.6208 10.7084 17.4393 8.52686 14.7483 8.52686C12.0573 8.52686 9.87576 10.7084 9.87576 13.3994C9.87576 16.0904 12.0573 18.2719 14.7483 18.2719Z" fill="#087DC0"/>
<path d="M29.9749 18.2719C32.666 18.2719 34.8475 16.0904 34.8475 13.3994C34.8475 10.7084 32.666 8.52686 29.9749 8.52686C27.2838 8.52686 25.1023 10.7084 25.1023 13.3994C25.1023 16.0904 27.2838 18.2719 29.9749 18.2719Z" fill="#087DC0"/>
<path d="M45.2015 18.2719C47.8925 18.2719 50.074 16.0904 50.074 13.3994C50.074 10.7084 47.8925 8.52686 45.2015 8.52686C42.5106 8.52686 40.3291 10.7084 40.3291 13.3994C40.3291 16.0904 42.5106 18.2719 45.2015 18.2719Z" fill="#087DC0"/>
<path d="M238.58 70.0424H48.5511C46.4512 70.0424 44.4372 69.2082 42.9523 67.7233C41.4674 66.2385 40.6332 64.2245 40.6332 62.1246C40.6332 60.0247 41.4674 58.0107 42.9523 56.5259C44.4372 55.041 46.4512 54.2068 48.5511 54.2068H238.58C240.68 54.2068 242.694 55.041 244.179 56.5259C245.664 58.0107 246.498 60.0247 246.498 62.1246C246.498 64.2245 245.664 66.2385 244.179 67.7233C242.694 69.2082 240.68 70.0424 238.58 70.0424ZM48.5511 55.4249C46.7742 55.4249 45.0701 56.1308 43.8137 57.3872C42.5573 58.6436 41.8514 60.3477 41.8514 62.1246C41.8514 63.9015 42.5573 65.6056 43.8137 66.862C45.0701 68.1184 46.7742 68.8243 48.5511 68.8243H238.58C240.357 68.8243 242.061 68.1184 243.317 66.862C244.574 65.6056 245.28 63.9015 245.28 62.1246C245.28 60.3477 244.574 58.6436 243.317 57.3872C242.061 56.1308 240.357 55.4249 238.58 55.4249H48.5511Z" fill="#3F3D56"/>
<path d="M191.593 132.527H105.105C103.813 132.527 102.574 132.013 101.66 131.1C100.746 130.186 100.233 128.947 100.233 127.654C100.233 126.362 100.746 125.123 101.66 124.209C102.574 123.295 103.813 122.782 105.105 122.782H191.593C192.885 122.782 194.124 123.295 195.038 124.209C195.952 125.123 196.465 126.362 196.465 127.654C196.465 128.947 195.952 130.186 195.038 131.1C194.124 132.013 192.885 132.527 191.593 132.527Z" fill="#CCCCCC"/>
<path d="M241.535 148.971H105.105C103.813 148.971 102.574 148.458 101.66 147.544C100.746 146.631 100.233 145.391 100.233 144.099C100.233 142.807 100.746 141.567 101.66 140.653C102.574 139.74 103.813 139.226 105.105 139.226H241.535C242.828 139.226 244.067 139.74 244.981 140.653C245.895 141.567 246.408 142.807 246.408 144.099C246.408 145.391 245.895 146.631 244.981 147.544C244.067 148.458 242.828 148.971 241.535 148.971Z" fill="#CCCCCC"/>
<path d="M72.6981 149.885H46.5084C44.9743 149.883 43.5036 149.273 42.4189 148.188C41.3342 147.104 40.724 145.633 40.7223 144.099V127.654C40.724 126.12 41.3342 124.649 42.4189 123.565C43.5036 122.48 44.9743 121.87 46.5084 121.868H72.6981C74.2322 121.87 75.7029 122.48 76.7876 123.565C77.8723 124.649 78.4825 126.12 78.4842 127.654V144.099C78.4825 145.633 77.8723 147.104 76.7876 148.188C75.7029 149.273 74.2322 149.883 72.6981 149.885ZM46.5084 123.086C45.2973 123.087 44.1362 123.569 43.2798 124.425C42.4234 125.282 41.9417 126.443 41.9404 127.654V144.099C41.9417 145.31 42.4234 146.471 43.2798 147.327C44.1362 148.184 45.2973 148.666 46.5084 148.667H72.6981C73.9092 148.666 75.0703 148.184 75.9267 147.327C76.783 146.471 77.2648 145.31 77.2661 144.099V127.654C77.2648 126.443 76.783 125.282 75.9267 124.425C75.0703 123.569 73.9092 123.087 72.6981 123.086H46.5084Z" fill="#CCCCCC"/>
<path d="M191.593 190.388H105.105C103.813 190.388 102.574 189.874 101.66 188.961C100.746 188.047 100.233 186.808 100.233 185.515C100.233 184.223 100.746 182.984 101.66 182.07C102.574 181.156 103.813 180.643 105.105 180.643H191.593C192.885 180.643 194.124 181.156 195.038 182.07C195.952 182.984 196.465 184.223 196.465 185.515C196.465 186.808 195.952 188.047 195.038 188.961C194.124 189.874 192.885 190.388 191.593 190.388Z" fill="#CCCCCC"/>
<path d="M241.535 206.832H105.105C103.813 206.832 102.574 206.319 101.66 205.405C100.746 204.492 100.233 203.252 100.233 201.96C100.233 200.668 100.746 199.428 101.66 198.515C102.574 197.601 103.813 197.087 105.105 197.087H241.535C242.828 197.087 244.067 197.601 244.981 198.515C245.895 199.428 246.408 200.668 246.408 201.96C246.408 203.252 245.895 204.492 244.981 205.405C244.067 206.319 242.828 206.832 241.535 206.832Z" fill="#CCCCCC"/>
<path d="M72.6981 207.746H46.5084C44.9743 207.744 43.5036 207.134 42.4189 206.049C41.3342 204.965 40.724 203.494 40.7223 201.96V185.515C40.724 183.981 41.3342 182.511 42.4189 181.426C43.5036 180.341 44.9743 179.731 46.5084 179.729H72.6981C74.2322 179.731 75.7029 180.341 76.7876 181.426C77.8723 182.511 78.4825 183.981 78.4842 185.515V201.96C78.4825 203.494 77.8723 204.965 76.7876 206.049C75.7029 207.134 74.2322 207.744 72.6981 207.746ZM46.5084 180.947C45.2973 180.949 44.1362 181.43 43.2798 182.287C42.4234 183.143 41.9417 184.304 41.9404 185.515V201.96C41.9417 203.171 42.4234 204.332 43.2798 205.189C44.1362 206.045 45.2973 206.527 46.5084 206.528H72.6981C73.9092 206.527 75.0703 206.045 75.9267 205.189C76.783 204.332 77.2648 203.171 77.2661 201.96V185.515C77.2648 184.304 76.783 183.143 75.9267 182.287C75.0703 181.43 73.9092 180.949 72.6981 180.947H46.5084Z" fill="#CCCCCC"/>
<path d="M191.593 248.249H105.105C103.813 248.249 102.574 247.736 101.66 246.822C100.746 245.908 100.233 244.669 100.233 243.377C100.233 242.085 100.746 240.845 101.66 239.931C102.574 239.018 103.813 238.504 105.105 238.504H191.593C192.885 238.504 194.124 239.018 195.038 239.931C195.952 240.845 196.465 242.085 196.465 243.377C196.465 244.669 195.952 245.908 195.038 246.822C194.124 247.736 192.885 248.249 191.593 248.249Z" fill="#F2F2F2"/>
<path d="M241.535 264.693H105.105C103.813 264.693 102.574 264.18 101.66 263.266C100.746 262.353 100.233 261.113 100.233 259.821C100.233 258.529 100.746 257.29 101.66 256.376C102.574 255.463 103.813 254.949 105.105 254.949H241.535C242.828 254.949 244.067 255.463 244.981 256.376C245.895 257.29 246.408 258.529 246.408 259.821C246.408 261.113 245.895 262.353 244.981 263.266C244.067 264.18 242.828 264.693 241.535 264.693Z" fill="#F2F2F2"/>
<path d="M72.6981 265.607H46.5084C44.9743 265.605 43.5036 264.995 42.4189 263.91C41.3342 262.826 40.724 261.355 40.7223 259.821V243.376C40.724 241.842 41.3342 240.371 42.4189 239.287C43.5036 238.202 44.9743 237.592 46.5084 237.59H72.6981C74.2322 237.592 75.7029 238.202 76.7876 239.287C77.8723 240.371 78.4825 241.842 78.4842 243.376V259.821C78.4825 261.355 77.8723 262.826 76.7876 263.91C75.7029 264.995 74.2322 265.605 72.6981 265.607Z" fill="#F2F2F2"/>
<path d="M59.6035 144.853L58.1932 143.581C53.1852 138.983 49.879 135.999 49.879 132.281C49.8666 131.574 49.9962 130.871 50.2602 130.215C50.5242 129.558 50.9172 128.962 51.4159 128.46C51.9146 127.958 52.5088 127.561 53.1635 127.294C53.8182 127.026 54.5201 126.892 55.2274 126.9C56.0623 126.904 56.8861 127.09 57.6417 127.445C58.3974 127.8 59.0668 128.315 59.6035 128.954C60.1401 128.315 60.8095 127.8 61.5651 127.445C62.3208 127.09 63.1446 126.904 63.9795 126.9C64.6868 126.892 65.3886 127.026 66.0433 127.294C66.698 127.561 67.2923 127.958 67.791 128.46C68.2897 128.962 68.6827 129.558 68.9467 130.215C69.2107 130.871 69.3403 131.574 69.3279 132.281C69.3279 135.999 66.0216 138.983 61.0137 143.581L59.6035 144.853Z" fill="#087DC0"/>
<path d="M59.6035 202.714L58.1932 201.442C53.1852 196.844 49.879 193.86 49.879 190.142C49.8666 189.435 49.9962 188.732 50.2602 188.076C50.5242 187.42 50.9172 186.823 51.4159 186.321C51.9146 185.819 52.5088 185.423 53.1635 185.155C53.8182 184.887 54.5201 184.753 55.2274 184.761C56.0623 184.766 56.8861 184.952 57.6417 185.306C58.3974 185.661 59.0668 186.176 59.6035 186.816C60.1401 186.176 60.8095 185.661 61.5651 185.306C62.3208 184.952 63.1446 184.766 63.9795 184.761C64.6868 184.753 65.3886 184.887 66.0433 185.155C66.698 185.423 67.2923 185.819 67.791 186.321C68.2897 186.823 68.6827 187.42 68.9467 188.076C69.2107 188.732 69.3403 189.435 69.3279 190.142C69.3279 193.86 66.0216 196.844 61.0137 201.442L59.6035 202.714Z" fill="#087DC0"/>
</g>
<defs>
<clipPath id="clip0">
<rect width="287" height="318.889" fill="white"/>
</clipPath>
</defs>
</svg>
